# xmcd
#
# Track frame offsets: 
#        150
#        14613
#        31103
#        45960
#        57930
#        77498
#        93140
#        112563
#        129128
#        148445
#        164055
#        180113
#        197020
#
# Disc length: 2885 seconds
#
# Revision: 7
# Processed by: cddbd v1.5.2PL0 Copyright (c) Steve Scherf et al.
# Submitted via: ExactAudioCopy v1.3
#
DISCID=950b430d
DTITLE=Kenny Rogers - 25 Greatest Hits Disc 2
DYEAR=1987
DGENRE=Crossover
TTITLE0=Daytime Friends
TTITLE1=You Decorated My Life
TTITLE2='Till I can Make it on My Own
TTITLE3=Reuben James
TTITLE4=Coward of the County
TTITLE5=I don't Need You
TTITLE6=Something's Burning
TTITLE7=Love will Turn You Around
TTITLE8=Abraham, Martin and John - Precious Memories
TTITLE9=Love is What We Make it
TTITLE10=Green Green Grass of Home
TTITLE11=Desperado
TTITLE12=Sweet Music Man
EXTD=
EXTT0=
EXTT1=
EXTT2=
EXTT3=
EXTT4=
EXTT5=
EXTT6=
EXTT7=
EXTT8=
EXTT9=
EXTT10=
EXTT11=
EXTT12=
PLAYORDER=
